<svg width="1323" height="92" viewBox="0 0 1323 92" fill="none" xmlns="http://www.w3.org/2000/svg">
<g clip-path="url(#clip0_276_77)">
<path d="M1387.66 35.8983C1387.69 37.3483 1387.72 38.8283 1387.73 40.3283C1387.74 41.7983 1387.74 43.2482 1387.73 44.6782C1376.21 44.3282 1367.12 45.3382 1361.03 46.2982C1349.76 48.0782 1345.02 50.2782 1340.13 47.2782C1334.39 43.7582 1334.46 39.5183 1329.37 31.9583C1323.96 23.9183 1317.49 23.1082 1313.62 26.8582C1309.75 30.5982 1310.22 61.3282 1309.54 66.2382C1308.86 71.1482 1307.62 71.8382 1306.05 69.0282C1304.47 66.2182 1304.69 51.2382 1303.37 42.5582C1302.05 33.8782 1300.35 29.5782 1295.92 28.2982C1291.49 27.0282 1290.22 33.1982 1290.39 38.3482C1290.56 43.4982 1290.26 55.3282 1288.26 55.8382C1286.26 56.3482 1286.35 44.0882 1286.52 37.4982C1286.69 30.8982 1285.84 27.9182 1281.37 25.5382C1276.9 23.1482 1273.49 25.4483 1268.39 23.9583C1263.28 22.4683 1257.75 20.8082 1253.79 21.2382C1249.84 21.6682 1247.28 23.4083 1246.43 26.6383C1245.58 29.8783 1244.64 55.9182 1243.96 58.1282C1243.28 60.3482 1242.56 60.6882 1241.71 58.0482C1240.86 55.4082 1240.13 40.7282 1238.18 37.0682C1236.22 33.4082 1228.05 30.4683 1224.52 26.5183C1220.98 22.5583 1214.56 23.5783 1212.3 24.8983C1210.05 26.2183 1210.94 30.8982 1208.26 33.8382C1205.58 36.7682 1204.22 51.1982 1204.13 54.0482C1204.05 56.8982 1201.92 56.1283 1201.71 53.5783C1201.49 51.0283 1201.37 40.8582 1200.73 38.9382C1200.09 37.0282 1195.41 36.7282 1193.2 34.2582C1190.98 31.7882 1192.05 28.1782 1192.09 26.5582C1192.13 24.9382 1190.56 26.5982 1185.03 25.2382C1179.49 23.8782 1177.58 26.6882 1175.07 28.9382C1172.56 31.1982 1170.9 28.9383 1170.01 30.8983C1169.11 32.8583 1169.49 39.4482 1168.56 42.3882C1167.62 45.3282 1166.3 43.8382 1165.96 42.1782C1165.62 40.5182 1164.94 39.1482 1161.24 30.1782C1157.54 21.1982 1153.41 20.2582 1147.88 22.7282C1142.35 25.1982 1138.94 33.8782 1138.3 42.2582C1137.66 50.6382 1137.41 58.7682 1136.18 57.9182C1134.94 57.0682 1135.28 51.6682 1135.24 47.1082C1135.2 42.5582 1133.07 34.3882 1130.09 33.1982C1127.11 32.0082 1121.66 33.0682 1117.66 32.3482C1113.66 31.6182 1109.28 28.4682 1100.09 28.5982C1090.9 28.7282 1087.15 33.5782 1086.05 36.3882C1084.94 39.1982 1083.58 51.7882 1082.86 52.9382C1082.13 54.0882 1081.24 53.6682 1080.94 51.1082C1080.64 48.5582 1081.24 40.7282 1080.13 38.2982C1079.03 35.8782 1076.86 34.9382 1071.75 34.2182C1066.64 33.4982 1059.84 29.1982 1055.79 27.7882C1051.75 26.3882 1044.81 30.1282 1038.13 34.0082C1031.45 37.8782 1026.05 33.5782 1023.49 31.9182C1020.94 30.2582 1018.81 27.7082 1012.01 28.2582C1005.2 28.8082 1002.98 37.0682 1002.47 40.5982C1001.96 44.1282 1003.96 49.4482 1003.71 54.2982C1003.45 59.1482 997.789 57.3682 996.639 53.6682C995.489 49.9582 998.299 44.1782 998.389 41.2382C998.469 38.2982 997.369 36.0882 995.109 37.1982C992.859 38.2982 991.109 43.0682 990.729 44.9382C990.349 46.8082 989.579 49.4082 988.009 47.7482C986.429 46.0882 986.259 39.4082 985.789 35.8382C985.319 32.2582 981.579 32.5982 979.239 30.9782C976.899 29.3682 973.749 26.7283 972.639 26.7683C971.539 26.8083 969.959 28.6382 965.409 30.2582C960.859 31.8782 957.489 39.4482 957.659 43.2382C957.839 47.0282 957.319 54.0082 955.919 53.7882C954.519 53.5782 955.709 48.9782 955.369 45.5382C955.029 42.0882 954.049 39.1082 952.979 36.3482C951.919 33.5782 947.839 36.6382 948.429 38.9782C949.029 41.3282 949.539 51.2782 948.429 54.4282C947.319 57.5782 947.749 77.3282 945.879 78.6882C944.009 80.0482 943.239 71.3282 943.279 66.2382C943.319 61.1482 942.899 52.6382 940.469 49.1082C938.049 45.5782 939.489 40.9782 938.939 38.1782C938.389 35.3682 936.389 34.8082 934.939 37.6682C933.489 40.5182 932.429 45.6682 931.279 45.5382C930.129 45.4082 930.599 41.1982 929.789 37.8382C928.979 34.4682 927.149 34.4682 923.199 34.2182C919.239 33.9582 916.469 31.1082 911.409 31.5382C906.349 31.9582 902.769 32.0082 898.299 32.0082C893.839 32.0082 889.149 34.4282 888.899 41.2382C888.639 48.0482 887.579 55.0682 886.299 54.0482C885.029 53.0282 884.729 46.8082 884.899 41.1982C885.069 35.5782 883.789 34.6382 882.559 36.5582C881.319 38.4682 880.639 54.8582 880.089 58.6882C879.539 62.5182 878.859 63.1082 877.619 59.8782C876.389 56.6382 876.599 49.9182 876.689 42.5582C876.769 35.1982 874.389 32.6883 869.149 30.5183C863.919 28.3483 859.839 32.2182 854.859 29.6182C849.879 27.0282 843.449 24.8582 839.369 27.8782C835.279 30.8982 835.069 55.1082 835.069 60.9782C835.069 66.8582 834.129 67.6182 832.599 65.8382C831.069 64.0482 830.349 54.4682 830.179 52.5982C830.009 50.7282 830.349 42.1283 824.219 39.7083C818.089 37.2783 815.659 33.4083 813.449 31.5783C811.239 29.7483 805.449 29.9582 802.559 31.1982C799.659 32.4282 800.689 37.8382 798.469 41.6182C796.259 45.4082 795.369 51.1082 795.539 56.9382C795.709 62.7682 794.219 63.6182 792.639 61.6682C791.069 59.7082 792.179 49.6682 791.109 46.1282C790.049 42.5982 785.369 43.7482 783.319 41.4082C781.279 39.0682 782.009 34.6382 781.789 32.4682C781.579 30.2982 770.519 29.9182 767.919 33.0282C765.319 36.1282 766.049 34.4682 762.519 35.8382C758.979 37.1982 759.839 45.6683 759.029 49.3283C758.219 52.9783 757.029 49.1083 756.429 47.1483C755.839 45.1983 754.179 43.1982 751.149 35.7882C748.129 28.3882 744.559 26.6383 739.149 28.7683C733.749 30.8983 730.519 37.8782 730.599 42.2982C730.689 46.7282 728.939 54.9382 728.559 59.8382C728.179 64.7282 726.689 64.2582 726.349 61.4482C726.009 58.6382 725.029 46.2583 724.049 43.9583C723.069 41.6683 719.879 39.2782 716.769 39.4082C713.659 39.5382 709.709 39.7082 704.349 37.5382C698.979 35.3682 688.009 34.7682 682.009 37.8782C676.009 40.9782 674.689 54.7682 674.179 58.0882C673.659 61.4082 671.449 60.9382 671.409 57.5382C671.369 54.1282 670.559 43.7882 667.709 41.7482C664.859 39.7082 660.009 42.4282 653.489 37.4082C646.979 32.3882 638.769 34.2182 633.579 37.5382C628.389 40.8582 621.839 44.4282 614.179 38.2582C606.519 32.0882 598.409 36.1983 595.469 39.7683C592.539 43.3483 595.029 53.6882 594.899 59.4082C594.769 65.1282 591.129 65.0482 588.449 62.3682C585.769 59.6882 587.299 54.7082 588.519 50.8782C589.729 47.0482 589.469 43.4082 585.899 43.4682C582.319 43.5382 581.299 52.0882 580.409 54.2582C579.519 56.4282 578.049 53.0482 576.899 47.4282C575.749 41.8082 574.659 40.3482 570.959 37.9782C567.259 35.6182 565.539 33.1983 557.109 36.7083C548.689 40.2183 548.489 55.5982 547.789 58.7882C547.089 61.9782 545.109 59.4282 544.919 51.0082C544.729 42.5782 540.839 40.8582 539.879 42.6382C538.919 44.4282 541.409 52.9782 539.879 56.7482C538.349 60.5182 537.579 79.9182 537.239 82.2982C536.899 84.6882 536.179 85.9182 535.029 82.0882C533.879 78.2582 533.369 61.7082 532.349 58.6382C531.319 55.5782 529.749 52.5982 529.489 48.4282C529.239 44.2582 527.369 40.4282 526.009 42.3882C524.639 44.3482 522.729 52.2982 521.659 51.4482C520.599 50.5982 520.899 46.5982 519.839 43.4082C518.769 40.2182 515.539 40.5983 511.749 39.7083C507.959 38.8083 501.659 37.8382 498.179 38.4282C494.689 39.0282 490.469 37.8783 485.789 38.8983C481.109 39.9183 480.009 44.0882 479.659 50.2982C479.319 56.5182 478.049 59.3283 477.109 60.7683C476.179 62.2183 475.489 58.0482 475.409 52.8582C475.319 47.6682 473.539 41.6182 471.409 39.4982C469.279 37.3682 461.539 36.7682 457.109 39.8382C452.689 42.8982 452.599 63.8382 451.919 76.0882C451.239 88.3482 448.009 86.6383 447.839 79.1483C447.659 71.6683 444.639 52.2782 443.619 47.8782C442.599 43.4682 439.409 40.2783 435.709 42.5783C432.009 44.8783 432.959 66.0082 432.129 67.8582C431.299 69.7082 429.639 67.8582 429.129 62.1782C428.619 56.4982 429.129 49.0282 428.489 43.5382C427.859 38.0482 423.319 37.8582 414.129 37.0282C404.939 36.1982 408.579 35.6882 399.199 34.0882C389.809 32.4982 389.049 39.0082 388.409 46.3482C387.769 53.6882 387.519 75.5782 384.769 72.1982C382.029 68.8082 383.559 61.5382 381.769 53.6882C379.979 45.8382 376.349 46.3482 370.859 43.4682C365.369 40.5982 367.789 36.9582 360.519 37.2782C353.239 37.5982 352.789 39.9582 352.659 43.3482C352.539 46.7282 349.599 49.0282 348.199 52.7282C346.789 56.4282 347.239 70.2782 345.389 68.6882C343.539 67.0882 345.129 55.0282 342.899 51.6382C340.659 48.2582 336.449 49.9782 334.979 46.3482C333.519 42.7082 335.429 40.2782 332.299 38.4282C329.179 36.5782 322.659 37.3483 320.239 40.1483C317.809 42.9583 315.839 41.8783 314.049 42.7083C312.259 43.5383 311.749 49.7282 311.049 53.8782C310.349 58.0282 309.199 58.3482 308.429 56.7482C307.659 55.1482 307.729 53.0482 304.859 45.4482C301.979 37.8582 299.559 33.8982 292.349 35.6882C285.129 37.4682 281.609 44.6882 281.939 51.0682C282.269 57.4482 280.539 67.2782 280.089 69.2582C279.639 71.2382 278.369 69.3882 278.049 65.4982C277.729 61.5982 277.659 53.4282 276.009 50.1782C274.349 46.9182 271.859 46.3483 265.659 46.1483C259.469 45.9583 258.899 45.0682 253.409 43.2182C247.919 41.3682 239.109 41.8082 234.069 44.1082C229.029 46.4082 228.069 52.5982 227.049 59.4082C226.029 66.2082 225.389 67.4082 224.489 67.7282C223.599 68.0482 223.349 64.5382 223.219 58.6682C223.089 52.7882 222.639 50.6183 220.469 48.7083C218.299 46.7883 214.659 48.3882 210.389 46.9182C206.109 45.4482 202.789 41.2382 194.879 41.6182C186.959 42.0082 183.449 47.2983 177.639 48.7683C171.839 50.2383 164.559 43.5982 160.979 42.0082C157.409 40.4082 151.659 41.4282 147.769 46.4082C143.879 51.3882 147.579 61.4083 146.809 66.8983C146.049 72.3883 142.659 72.1282 140.369 68.6182C138.069 65.1082 139.919 60.5182 140.559 58.4082C141.199 56.2982 141.899 50.6882 139.149 49.9182C136.409 49.1482 134.109 53.6182 133.279 58.7282C132.449 63.8382 130.599 60.8382 129.769 57.0682C128.939 53.2982 127.859 46.7882 125.109 45.4482C122.369 44.1082 120.129 42.7682 118.729 41.4982C117.319 40.2182 115.219 40.8582 112.599 41.5582C109.979 42.2582 108.839 42.2582 104.369 46.3482C99.8995 50.4282 100.539 66.7082 99.9594 68.1782C99.3894 69.6382 98.8094 65.9382 98.2394 60.8382C97.6594 55.7282 96.1294 48.9582 93.7694 47.8782C91.4094 46.7882 91.3495 50.5582 91.4695 54.0082C91.5995 57.4482 91.6594 67.2782 90.7694 71.4982C89.8794 75.7082 89.9394 90.8982 89.0494 91.6682C88.1494 92.4282 87.1994 87.3882 86.2394 82.2782C85.2794 77.1782 86.1095 68.7482 84.5795 64.8582C83.0495 60.9582 81.7094 57.6382 81.7094 54.1282C81.7094 50.6182 80.1794 47.2983 78.7094 48.5183C77.2394 49.7283 75.2595 57.1982 74.1795 58.4082C73.0895 59.6182 73.3495 57.6382 73.0295 53.9382C72.7095 50.2382 71.6194 48.5182 69.7094 47.2982C67.7894 46.0882 63.4495 47.0482 59.7495 46.0882C56.0495 45.1282 53.9395 42.9582 50.7495 44.2982C47.5595 45.6382 43.9095 44.6882 40.2195 45.0082C36.5295 45.3282 31.5395 47.6882 31.5395 53.4282C31.5395 59.1782 30.4495 63.1982 30.0095 64.8582C29.5595 66.5182 29.0495 67.0282 28.5395 65.1782C28.0295 63.3282 28.0295 57.3882 26.6195 52.4682C25.2195 47.5582 24.0095 46.7283 22.2795 45.5183C19.2395 43.3883 15.4595 44.0982 9.63945 44.4282C7.76945 44.5382 4.91945 44.6582 1.37945 44.6682H0.00945312V40.0783C-0.000546875 36.4283 -0.000546875 36.1282 0.00945312 35.7482C0.0294531 33.7682 0.269454 30.8682 1.27945 27.0682C1.73945 26.9282 2.17945 26.7882 2.56945 26.6582C2.57945 26.6582 2.59946 26.6583 2.60946 26.6483C3.32946 26.5283 3.93946 26.3882 4.42946 26.2582C7.39946 25.4682 10.7695 23.8282 13.0295 23.4282C13.4995 23.3682 13.8995 23.3482 14.2795 23.3382C14.3395 23.3282 14.3895 23.3283 14.4395 23.3283C14.5795 23.3283 14.7095 23.3282 14.8495 23.3382C14.9495 23.3382 15.0595 23.3482 15.1695 23.3482C15.2895 23.3582 15.3995 23.3683 15.5095 23.3883C15.6695 23.3983 15.7795 23.4282 15.8395 23.4382C16.0295 23.4782 16.1995 23.5182 16.3795 23.5682H16.3895C16.6895 23.6482 16.9795 23.7582 17.2795 23.8782C17.6795 24.0382 18.0995 24.2382 18.5695 24.4482C18.7695 24.5382 18.9795 24.6282 19.1995 24.7282C19.6695 24.9482 20.1995 25.1682 20.8095 25.4082C24.4495 26.8082 33.8195 27.0682 36.5795 26.1782C39.3395 25.2782 46.0895 24.6382 52.8595 23.6182C59.6195 22.5982 58.0895 18.4482 70.1495 13.9782C82.2195 9.51822 97.4694 14.9382 101.489 18.1982C105.519 21.4482 113.049 22.3482 115.789 18.8382C118.539 15.3282 123.449 13.4682 131.689 14.9382C139.919 16.4082 142.599 22.8582 145.729 22.9782C148.859 23.1082 150.709 18.5182 152.619 18.1982C154.539 17.8782 154.149 19.4082 157.219 19.5982C160.279 19.7882 159.899 17.1082 167.369 17.2382C174.839 17.3682 177.839 21.5182 180.769 25.4682C183.709 29.4282 185.689 29.0482 189.069 26.2982C192.449 23.5582 194.489 17.5582 197.689 16.2782C200.879 15.0082 202.089 17.7482 205.599 17.1782C209.109 16.5982 213.199 16.0882 216.959 16.5982C220.729 17.1082 223.919 20.6882 226.219 21.4482C228.519 22.2182 231.579 21.9582 238.349 19.6682C245.109 17.3682 248.429 20.8082 251.369 22.9782C254.299 25.1482 256.599 23.7482 260.689 23.7482C264.769 23.7482 273.579 24.4282 276.519 23.4982C279.449 22.5582 280.729 21.5783 284.429 21.9583C288.129 22.3483 290.049 21.9582 293.749 19.9182C297.449 17.8782 303.709 14.6882 308.179 15.1982C312.639 15.7082 313.789 18.5183 318.009 19.1483C322.219 19.7883 332.689 19.4082 335.619 21.0682C338.559 22.7282 340.469 24.2582 342.389 22.5982C344.299 20.9382 348.009 17.3682 353.109 17.6182C358.219 17.8782 366.129 18.1282 371.369 17.2382C376.599 16.3482 378.259 16.9782 381.449 19.6682C384.639 22.3482 384.519 23.6183 389.239 21.3283C393.959 19.0283 399.199 17.7482 405.069 18.1282C410.939 18.5182 415.409 21.8382 422.299 23.1082C429.199 24.3882 435.709 20.8083 439.789 18.6383C443.879 16.4683 449.239 15.4482 459.709 15.8382C470.179 16.2182 471.449 20.0482 476.179 19.9182C480.899 19.7882 484.729 18.0082 490.729 17.1082C496.729 16.2182 495.839 18.7682 501.449 16.9782C507.069 15.1982 510.389 10.9782 515.109 8.80823C519.839 6.63823 523.659 6.63824 533.489 6.25824C543.319 5.87824 553.919 13.1482 558.389 14.6882C562.859 16.2182 561.069 15.1982 564.639 11.3682C568.219 7.53823 571.279 7.27821 577.789 7.78821C584.299 8.29821 588.519 13.6683 590.689 15.5783C592.859 17.4983 594.639 15.7082 596.559 13.9182C598.469 12.1282 600.519 12.2583 603.069 12.8983C605.619 13.5383 606.389 12.5182 612.519 10.8582C618.639 9.19822 623.749 12.3882 627.199 16.9782C630.639 21.5782 632.049 21.8382 635.109 20.9382C638.179 20.0482 639.319 14.1782 642.519 11.6182C645.709 9.06823 651.959 10.3482 658.469 9.8382C664.979 9.3282 668.049 11.3682 671.489 13.4082C674.939 15.4482 680.429 15.5782 685.279 13.4082C690.129 11.2382 693.449 13.0282 697.539 15.0682C701.619 17.1082 704.559 18.1282 708.129 17.4982C711.709 16.8582 720.009 17.2382 722.809 17.2382C725.619 17.2382 727.409 14.9383 730.349 15.7083C733.279 16.4683 737.489 15.8382 740.939 13.7882C744.389 11.7482 749.619 8.17823 755.369 8.42823C761.109 8.68823 762.519 11.7483 765.199 12.6383C767.879 13.5383 775.029 12.2582 780.899 13.2782C786.769 14.2982 787.789 17.4982 788.689 17.4982C789.579 17.4982 791.239 15.1983 794.939 12.6383C798.639 10.0883 802.859 11.8782 807.579 11.7482C812.299 11.6182 817.659 9.57821 824.939 10.5982C832.219 11.6182 832.469 15.4483 833.369 15.9583C834.259 16.4683 836.049 15.3282 840.899 13.0282C845.749 10.7282 855.959 11.2382 861.579 13.6682C867.199 16.0882 872.179 16.4682 875.879 16.2182C879.579 15.9582 882.129 13.0282 885.319 13.2782C888.519 13.5382 895.029 13.4082 897.199 12.1282C899.369 10.8582 902.299 10.3482 908.049 10.5982C913.789 10.8582 914.049 8.17822 919.149 4.72822C924.259 1.27822 931.149 -0.121755 939.959 0.00824502C948.769 0.128245 953.619 1.14822 959.879 5.10822C966.129 9.06822 971.239 8.29824 974.299 5.49824C977.369 2.68824 981.709 0.638208 989.109 1.40821C996.519 2.16821 999.069 9.1982 1001.88 9.8382C1004.69 10.4682 1006.09 6.89823 1008.13 5.61823C1010.18 4.34823 1012.22 6.1282 1014.39 7.0282C1016.56 7.9182 1019.75 4.46825 1024.09 3.44825C1028.43 2.42825 1032.52 6.00824 1034.94 8.68824C1037.37 11.3682 1039.79 15.1982 1043.24 15.1982C1046.69 15.1982 1047.45 11.8782 1050.52 6.38825C1053.58 0.89825 1059.07 3.83826 1062.9 3.70826C1066.73 3.57826 1072.35 1.40825 1076.05 3.44825C1079.75 5.49825 1081.92 10.5982 1092.64 7.78821C1103.37 4.97821 1105.54 7.66826 1108.86 9.70826C1112.18 11.7483 1116.01 10.9782 1122.13 10.4682C1128.26 9.95821 1129.66 12.3882 1132.47 10.9782C1135.28 9.57822 1141.28 9.44825 1144.6 9.32825C1147.92 9.19825 1149.2 8.55822 1153.92 5.10822C1158.64 1.66822 1164.01 1.0282 1167.71 1.5882C1171.41 2.1482 1175.37 7.02826 1180.47 6.89826C1185.58 6.76826 1193.11 8.2982 1195.28 9.8382C1197.45 11.3682 1199.24 10.3482 1201.41 7.53821C1203.58 4.72821 1208.81 3.32821 1213.03 4.21821C1217.24 5.10821 1219.03 6.63821 1227.32 4.21821C1235.62 1.78821 1238.81 5.74822 1240.86 7.91822C1242.9 10.0882 1244.18 10.0882 1246.6 8.17823C1249.03 6.25823 1261.28 3.95822 1271.62 7.66822C1275.36 9.00822 1278.15 9.69823 1280.96 9.73823C1281.4 9.74823 1281.84 9.73822 1282.27 9.72822C1290.82 9.47822 1295.96 5.69826 1301.24 3.95826C1301.39 3.90826 1301.54 3.85825 1301.67 3.82825C1301.85 3.77825 1302.02 3.72825 1302.18 3.69825C1302.26 3.67825 1302.33 3.65826 1302.41 3.64826C1302.48 3.63826 1302.56 3.61822 1302.63 3.60822C1302.66 3.59822 1302.69 3.5982 1302.72 3.5882C1302.74 3.5782 1302.77 3.57825 1302.79 3.57825C1303.48 3.41825 1304.19 3.30824 1304.92 3.25824C1304.98 3.25824 1305.03 3.24824 1305.09 3.24824C1313.58 2.76824 1323.81 8.56824 1334.08 13.6882C1334.11 13.6982 1334.14 13.7182 1334.17 13.7382C1334.5 13.9082 1334.85 14.0882 1335.25 14.2782C1335.68 14.4982 1336.16 14.7282 1336.69 14.9782C1344.16 18.5882 1354.36 22.4782 1367.76 24.8582C1373.09 26.0082 1378.83 26.9382 1383.64 27.0082C1385.03 27.0282 1386.39 26.9682 1386.39 26.9682C1386.51 26.9682 1386.63 26.9583 1386.74 26.9583C1386.75 26.9583 1386.76 26.9583 1386.76 26.9583C1387.01 26.9783 1387.27 26.9882 1387.53 26.9982C1387.58 29.8782 1387.61 32.7982 1387.63 35.7482C1387.64 35.7982 1387.65 35.8483 1387.66 35.8983Z" fill="#A4D2E9"/>
<path d="M1387.66 35.8983H1387.63C1380.99 35.6983 1375.49 36.1382 1371.45 36.6382C1369.87 36.8382 1363.7 37.7283 1358.75 39.1483C1357.64 39.4683 1356.66 39.7782 1355.75 40.0882C1351.59 41.4882 1350.5 42.2782 1348.07 42.0282C1339.98 41.2082 1336.38 33.2782 1330.86 28.5982C1327.71 25.9382 1323.83 22.7383 1318.77 22.8983C1317.49 22.9383 1315.76 23.0282 1314.06 24.1182C1311.21 25.9382 1309.92 29.7182 1309.32 34.5982C1308.47 41.6182 1307.28 42.5582 1306.64 39.7882C1306.01 37.0282 1303.15 29.9183 1299.92 26.5183C1296.69 23.1083 1290.09 30.4282 1288.64 28.9382C1287.2 27.4482 1288.52 25.1982 1285.84 23.0282C1283.15 20.8582 1272.26 22.1783 1266.26 19.9583C1260.26 17.7483 1250.86 17.6183 1247.28 21.1483C1243.71 24.6883 1244.47 42.6883 1242.35 43.5783C1240.22 44.4683 1240.81 37.4983 1237.84 32.7683C1234.86 28.0483 1228.69 24.4282 1221.11 22.6882C1213.54 20.9382 1205.88 23.1482 1204.01 27.1982C1202.13 31.2382 1204.6 36.8083 1203.45 38.5183C1202.3 40.2183 1197.45 35.0282 1196.01 33.5382C1194.56 32.0482 1194.9 24.8082 1193.28 23.2782C1191.66 21.7482 1185.49 23.3682 1182.26 22.0482C1179.03 20.7282 1176.52 22.9383 1173.92 24.3883C1171.32 25.8383 1169.07 21.4482 1168.77 23.1082C1168.47 24.7682 1168.01 35.3283 1167.11 36.8983C1166.22 38.4683 1164.73 35.9182 1164.26 32.5582C1163.79 29.1982 1160.01 20.0482 1154.64 19.4482C1149.28 18.8582 1141.07 22.8982 1138.09 25.9182C1135.11 28.9382 1136.94 33.3682 1133.49 33.6182C1130.05 33.8782 1129.96 27.7883 1127.2 26.8983C1124.43 26.0083 1123.03 29.2382 1119.03 29.0682C1115.03 28.8982 1113.92 25.2782 1109.03 26.2982C1104.13 27.3282 1102.43 28.0483 1099.24 27.7083C1096.05 27.3683 1092.86 24.8582 1089.49 27.0282C1086.13 29.1982 1085.92 34.8982 1082.81 36.1282C1079.71 37.3682 1077.96 32.5582 1077.32 29.3682C1076.69 26.1782 1072.01 27.2382 1068.47 28.3482C1064.94 29.4482 1060.86 26.9382 1059.62 25.7882C1058.39 24.6382 1055.37 25.5782 1053.24 24.2582C1051.11 22.9382 1047.75 18.1782 1045.79 20.4682C1043.84 22.7682 1040.09 28.2182 1037.41 29.4082C1034.73 30.5982 1026.69 31.0682 1022.22 28.8082C1017.75 26.5582 1008.94 21.2382 1005.2 26.2982C1001.45 31.3682 1001.88 37.0682 1000.47 38.6382C999.07 40.2182 997.84 34.0882 995.32 34.2182C992.81 34.3482 990.98 39.9183 988.81 39.1483C986.64 38.3883 986.05 27.4082 985.15 26.6882C984.26 25.9582 982.3 26.2582 982.22 23.7882C982.13 21.3282 976.9 17.6182 972.94 22.9382C968.98 28.2582 968.01 25.9182 964.09 27.7482C960.18 29.5782 958.18 35.6183 956.18 36.5183C954.18 37.4083 953.92 32.1782 952.9 28.1282C951.88 24.0882 949.24 26.5582 949.41 28.9782C949.58 31.4082 947.07 32.5182 946.22 34.7282C945.37 36.9382 947.03 45.7482 943.96 45.8382C940.9 45.9182 941.79 35.0682 941.45 32.0882C941.11 29.1082 937.28 29.7082 934.77 33.7882C932.26 37.8782 932.13 37.1982 931.03 34.5582C929.92 31.9182 926.9 31.3282 921.45 31.1082C916.01 30.8982 912.3 26.3882 908.81 27.4482C905.32 28.5182 904.39 29.8782 901.15 29.1982C897.92 28.5182 893.15 28.3882 890.73 31.1082C888.3 33.8382 888.39 35.6682 886.69 33.4082C884.98 31.1482 883.32 34.5582 880.56 35.8782C877.79 37.1982 879.2 32.8082 878.6 30.5982C878.01 28.3882 866.69 28.3482 859.28 27.1982C851.88 26.0482 841.24 23.4982 838.13 27.0282C835.03 30.5582 834.73 43.3282 833.84 47.2782C832.94 51.2382 831.88 48.4682 830.35 43.5382C828.81 38.5982 824.9 34.7282 819.03 31.4982C813.15 28.2582 808.13 28.6382 801.84 29.4082C795.54 30.1782 793.88 33.9182 794.52 38.0882C795.15 42.2582 793.2 44.2182 791.58 43.2782C789.96 42.3482 785.07 39.6182 784.98 35.0282C784.9 30.4282 781.32 28.4282 777.96 29.1982C774.6 29.9582 773.66 28.1783 770.18 27.7083C766.69 27.2383 766.22 29.9582 764.09 31.0282C761.96 32.0882 762.73 27.9182 760.09 28.1782C757.45 28.4282 758.22 37.0682 757.96 39.5382C757.71 42.0082 757.45 45.1482 756.43 43.0682C755.41 40.9782 752.43 28.5582 747.79 26.5982C743.15 24.6382 737.28 27.2783 731.37 30.6383C725.45 34.0083 726.81 38.9782 724.22 40.0082C721.62 41.0282 719.88 33.6182 716.64 33.0682C713.41 32.5182 710.9 35.2782 706.3 34.9382C701.71 34.5982 701.2 31.3682 698.05 32.5982C694.9 33.8382 693.15 34.7282 690.09 34.2582C687.03 33.7882 684.9 31.2782 680.52 33.4082C676.13 35.5382 676.01 41.4082 673.32 42.3482C670.64 43.2782 669.32 40.0883 668.18 37.1483C667.03 34.2183 665.2 32.1282 662.73 33.7882C660.26 35.4482 655.03 35.8782 652.47 34.1782C649.92 32.4682 650.09 31.9583 645.11 31.3283C640.13 30.6883 640.77 27.0682 638.47 26.0082C636.18 24.9382 636.01 27.8382 631.03 33.7482C626.05 39.6682 619.58 36.3882 614.13 35.3682C608.69 34.3482 602.47 28.5983 596.94 31.3283C591.41 34.0483 593.24 41.2382 591.58 44.2582C589.92 47.2782 589.32 41.8382 587.2 40.0482C585.07 38.2582 582.9 43.3683 580.56 45.5783C578.22 47.7883 577.49 43.1482 577.15 38.1782C576.81 33.1982 574.81 33.2382 573.58 32.5982C572.35 31.9582 572.73 30.7282 572.39 28.1782C572.05 25.6182 566.22 23.7882 562.94 28.5982C559.66 33.4082 557.37 32.5582 555.11 33.6682C552.86 34.7682 548.64 41.9183 546.69 43.3283C544.73 44.7283 544.22 38.4282 543.66 35.8382C543.11 33.2382 540.77 34.1282 540.22 35.6682C539.66 37.1982 537.37 41.3282 536.98 43.5382C536.6 45.7482 537.37 52.8583 533.88 51.3283C530.39 49.7883 532.18 40.4283 532.13 39.1483C532.09 37.8783 531.07 36.8582 529.66 37.8382C528.26 38.8082 525.54 40.2182 524.69 41.7482C523.84 43.2782 522.69 47.3683 522.13 46.5183C521.58 45.6683 521.11 38.5182 519.62 37.4482C518.13 36.3882 512.47 38.8582 508.98 36.4682C505.49 34.0882 497.72 34.5082 495.77 35.8782C493.82 37.2482 492.61 36.0982 488.37 35.2982C484.12 34.5082 478.31 39.1982 477.58 42.3382C476.85 45.4782 476.49 47.1082 475.51 44.5282C474.52 41.9382 474.64 37.3782 471.84 35.2982C469.03 33.2282 457.63 34.5982 455.59 37.6682C453.55 40.7282 451.31 52.1183 450.29 54.9583C449.27 57.7983 447.2 46.5982 446.59 44.8482C445.98 43.0882 441.8 35.8482 437.56 39.4782C433.31 43.1182 430.98 42.4482 430.89 40.2182C430.79 37.9782 429.48 35.5582 427.12 35.1382C424.76 34.7282 413.75 33.8682 408.45 32.7182C403.15 31.5682 394.09 29.7482 390.77 33.3582C387.45 36.9582 386.37 51.3282 386.21 54.1682C386.05 57.0082 384.2 55.4682 383.69 52.5682C383.18 49.6682 380.11 45.4482 377.69 42.6082C375.26 39.7682 369.36 36.6383 366.01 36.5183C362.65 36.3883 353.43 35.3382 349.22 36.8382C345.01 38.3382 346.57 45.9283 346.66 48.5183C346.76 51.0983 344.56 51.2883 343.31 49.8283C342.07 48.3583 337.15 44.9382 337.09 42.3382C337.03 39.7382 335.18 34.6282 331.06 35.5282C326.94 36.4182 326.62 35.6482 322.6 34.4082C318.58 33.1682 316.89 38.1082 315.1 37.9782C313.31 37.8582 311.91 33.2882 310.92 34.5082C309.93 35.7182 310.28 44.3683 310.06 47.2083C309.84 50.0483 308.85 51.5482 308.27 50.5582C307.7 49.5682 306.32 42.5783 303.42 36.3283C300.52 30.0683 291.1 33.1682 287.72 34.7882C284.34 36.4182 277.66 40.9383 277.28 43.5783C276.9 46.2183 275.45 46.8082 273.62 44.0082C271.79 41.1982 269.32 38.8583 266.81 39.9583C264.3 41.0683 261.28 43.0282 258.52 41.4482C255.75 39.8782 251.54 39.4982 247.24 40.4682C242.94 41.4482 240.6 39.7082 237.71 39.0282C234.81 38.3482 230.3 40.1282 228.26 43.1982C226.22 46.2582 226.77 49.7482 223.24 48.0482C219.71 46.3482 220.9 43.0682 219.28 40.6382C217.66 38.2182 215.15 40.4282 211.03 41.3682C206.9 42.2982 206.69 41.9182 203.71 39.3682C200.73 36.8082 198.98 39.0282 196.26 37.6182C193.54 36.2182 190.47 29.8782 187.11 34.6382C183.75 39.4082 184.35 39.1082 179.66 42.0882C174.98 45.0682 166.09 43.3283 161.11 39.5783C156.13 35.8383 146.52 35.7082 145.88 41.6682C145.24 47.6182 143.28 52.7282 142.09 51.6682C140.9 50.5982 141.2 46.6382 139.11 46.4282C137.03 46.2182 134.05 52.5182 131.28 51.8382C128.52 51.1482 129.11 46.2183 128.81 43.1483C128.52 40.0883 127.62 39.8382 126.09 38.4682C124.56 37.1082 123.79 32.2982 120.94 31.6682C118.09 31.0282 114.69 35.7882 113.15 37.8382C111.62 39.8782 107.79 40.0882 103.96 43.2782C100.13 46.4682 98.64 50.5183 97.15 47.9583C95.66 45.4083 96.64 37.5382 94.13 38.5982C91.62 39.6682 90.43 45.4482 88.94 47.5382C87.45 49.6182 88.56 56.5982 87.54 58.1282C86.52 59.6682 85.15 56.6882 84.81 53.3682C84.47 50.0482 85.37 48.0082 85.07 45.3682C84.77 42.7282 80.56 43.7882 78.6 45.7482C76.64 47.7082 74.94 54.1282 74.3 53.0282C73.66 51.9182 73.71 49.3282 72.6 46.8082C71.49 44.2982 66.3 44.1282 62.52 43.8782C58.73 43.6182 58.05 41.3282 53.75 40.3882C49.45 39.4482 49.07 42.0882 46.22 42.5982C43.37 43.1082 41.37 40.9382 38.01 41.0682C34.64 41.1982 30.94 45.0683 30.26 47.7083C29.58 50.3483 29.37 54.7282 28.26 53.6182C27.15 52.5182 27.41 47.9182 26.81 45.1982C26.22 42.4682 24.01 40.3482 19.62 40.6382C15.24 40.9382 15.62 38.6382 14.22 37.7882C11.7 36.2682 8.86 34.5282 6.05 35.0682C5.07 35.2582 4.29 35.6182 3.75 35.9182C3.23 35.8182 2.8 35.7982 2.51 35.7882C2.13 35.7782 1.91 35.7982 1.06 35.8482C0.609998 35.8682 0.24 35.8883 0 35.8983C0 32.9083 0 29.9082 0 26.9182C0.96 26.8782 1.82 26.7782 2.56 26.6582C2.57 26.6582 2.59 26.6583 2.6 26.6483C3.32 26.5283 3.93 26.3882 4.42 26.2582C7.39 25.4682 10.76 23.8282 13.02 23.4282C14.1 23.2382 15.02 23.3083 15.5 23.3883C15.66 23.3983 15.77 23.4282 15.83 23.4382C16.02 23.4782 16.19 23.5182 16.37 23.5682H16.38C16.68 23.6482 16.97 23.7582 17.27 23.8782C17.67 24.0382 18.09 24.2382 18.56 24.4482C18.76 24.5382 18.97 24.6282 19.19 24.7282C19.66 24.9482 20.19 25.1682 20.8 25.4082C24.44 26.8082 33.81 27.0682 36.57 26.1782C39.33 25.2782 46.08 24.6382 52.85 23.6182C59.61 22.5982 58.08 18.4482 70.14 13.9782C82.21 9.51822 97.46 14.9382 101.48 18.1982C105.51 21.4482 113.04 22.3482 115.78 18.8382C118.53 15.3282 123.44 13.4682 131.68 14.9382C139.91 16.4082 142.59 22.8582 145.72 22.9782C148.85 23.1082 150.7 18.5182 152.61 18.1982C154.53 17.8782 154.14 19.4082 157.21 19.5982C160.27 19.7882 159.89 17.1082 167.36 17.2382C174.83 17.3682 177.83 21.5182 180.76 25.4682C183.7 29.4282 185.68 29.0482 189.06 26.2982C192.44 23.5582 194.48 17.5582 197.68 16.2782C200.87 15.0082 202.08 17.7482 205.59 17.1782C209.1 16.5982 213.19 16.0882 216.95 16.5982C220.72 17.1082 223.91 20.6882 226.21 21.4482C228.51 22.2182 231.57 21.9582 238.34 19.6682C245.1 17.3682 248.42 20.8082 251.36 22.9782C254.29 25.1482 256.59 23.7482 260.68 23.7482C264.76 23.7482 273.57 24.4282 276.51 23.4982C279.44 22.5582 280.72 21.5783 284.42 21.9583C288.12 22.3483 290.04 21.9582 293.74 19.9182C297.44 17.8782 303.7 14.6882 308.17 15.1982C312.63 15.7082 313.78 18.5183 318 19.1483C322.21 19.7883 332.68 19.4082 335.61 21.0682C338.55 22.7282 340.46 24.2582 342.38 22.5982C344.29 20.9382 348 17.3682 353.1 17.6182C358.21 17.8782 366.12 18.1282 371.36 17.2382C376.59 16.3482 378.25 16.9782 381.44 19.6682C384.63 22.3482 384.51 23.6183 389.23 21.3283C393.95 19.0283 399.19 17.7482 405.06 18.1282C410.93 18.5182 415.4 21.8382 422.29 23.1082C429.19 24.3882 435.7 20.8083 439.78 18.6383C443.87 16.4683 449.23 15.4482 459.7 15.8382C470.17 16.2182 471.44 20.0482 476.17 19.9182C480.89 19.7882 484.72 18.0082 490.72 17.1082C496.72 16.2182 495.83 18.7682 501.44 16.9782C507.06 15.1982 510.38 10.9782 515.1 8.80823C519.83 6.63823 523.65 6.63824 533.48 6.25824C543.31 5.87824 553.91 13.1482 558.38 14.6882C562.85 16.2182 561.06 15.1982 564.63 11.3682C568.21 7.53823 571.27 7.27821 577.78 7.78821C584.29 8.29821 588.51 13.6683 590.68 15.5783C592.85 17.4983 594.63 15.7082 596.55 13.9182C598.46 12.1282 600.51 12.2583 603.06 12.8983C605.61 13.5383 606.38 12.5182 612.51 10.8582C618.63 9.19822 623.74 12.3882 627.19 16.9782C630.63 21.5782 632.04 21.8382 635.1 20.9382C638.17 20.0482 639.31 14.1782 642.51 11.6182C645.7 9.06823 651.95 10.3482 658.46 9.8382C664.97 9.3282 668.04 11.3682 671.48 13.4082C674.93 15.4482 680.42 15.5782 685.27 13.4082C690.12 11.2382 693.44 13.0282 697.53 15.0682C701.61 17.1082 704.55 18.1282 708.12 17.4982C711.7 16.8582 720 17.2382 722.8 17.2382C725.61 17.2382 727.4 14.9383 730.34 15.7083C733.27 16.4683 737.48 15.8382 740.93 13.7882C744.38 11.7482 749.61 8.17823 755.36 8.42823C761.1 8.68823 762.51 11.7483 765.19 12.6383C767.87 13.5383 775.02 12.2582 780.89 13.2782C786.76 14.2982 787.78 17.4982 788.68 17.4982C789.57 17.4982 791.23 15.1983 794.93 12.6383C798.63 10.0883 802.85 11.8782 807.57 11.7482C812.29 11.6182 817.65 9.57821 824.93 10.5982C832.21 11.6182 832.46 15.4483 833.36 15.9583C834.25 16.4683 836.04 15.3282 840.89 13.0282C845.74 10.7282 855.95 11.2382 861.57 13.6682C867.19 16.0882 872.17 16.4682 875.87 16.2182C879.57 15.9582 882.12 13.0282 885.31 13.2782C888.51 13.5382 895.02 13.4082 897.19 12.1282C899.36 10.8582 902.29 10.3482 908.04 10.5982C913.78 10.8582 914.04 8.17822 919.14 4.72822C924.25 1.27822 931.14 -0.121755 939.95 0.00824502C948.76 0.128245 953.61 1.14822 959.87 5.10822C966.12 9.06822 971.23 8.29824 974.29 5.49824C977.36 2.68824 981.7 0.638208 989.1 1.40821C996.51 2.16821 999.06 9.1982 1001.87 9.8382C1004.68 10.4682 1006.08 6.89823 1008.12 5.61823C1010.17 4.34823 1012.21 6.1282 1014.38 7.0282C1016.55 7.9182 1019.74 4.46825 1024.08 3.44825C1028.42 2.42825 1032.51 6.00824 1034.93 8.68824C1037.36 11.3682 1039.78 15.1982 1043.23 15.1982C1046.68 15.1982 1047.44 11.8782 1050.51 6.38825C1053.57 0.89825 1059.06 3.83826 1062.89 3.70826C1066.72 3.57826 1072.34 1.40825 1076.04 3.44825C1079.74 5.49825 1081.91 10.5982 1092.63 7.78821C1103.36 4.97821 1105.53 7.66826 1108.85 9.70826C1112.17 11.7483 1116 10.9782 1122.12 10.4682C1128.25 9.95821 1129.65 12.3882 1132.46 10.9782C1135.27 9.57822 1141.27 9.44825 1144.59 9.32825C1147.91 9.19825 1149.19 8.55822 1153.91 5.10822C1158.63 1.66822 1164 1.0282 1167.7 1.5882C1171.4 2.1482 1175.36 7.02826 1180.46 6.89826C1185.57 6.76826 1193.1 8.2982 1195.27 9.8382C1197.44 11.3682 1199.23 10.3482 1201.4 7.53821C1203.57 4.72821 1208.8 3.32821 1213.02 4.21821C1217.23 5.10821 1219.02 6.63821 1227.31 4.21821C1235.61 1.78821 1238.8 5.74822 1240.85 7.91822C1242.89 10.0882 1244.17 10.0882 1246.59 8.17823C1249.02 6.25823 1261.27 3.95822 1271.61 7.66822C1275.35 9.00822 1278.14 9.69823 1280.95 9.73823C1281.6 9.74823 1281.92 9.75822 1282.26 9.72822C1290.81 9.47822 1295.95 5.69826 1301.23 3.95826C1301.38 3.90826 1301.53 3.85825 1301.66 3.82825C1301.84 3.77825 1302.01 3.72825 1302.17 3.69825C1302.25 3.67825 1302.32 3.65826 1302.4 3.64826C1302.5 3.62826 1302.61 3.6082 1302.71 3.5882C1302.73 3.5782 1302.76 3.57825 1302.78 3.57825C1302.99 3.53825 1303.19 3.50821 1303.41 3.46821C1303.88 3.38821 1304.37 3.31824 1304.91 3.25824C1304.97 3.25824 1305.02 3.24824 1305.08 3.24824C1308.83 2.92824 1314.63 3.59824 1325.53 8.93824C1330.5 11.3882 1331 12.0782 1334.07 13.6882C1334.1 13.6982 1334.13 13.7182 1334.16 13.7382C1334.49 13.9082 1334.84 14.0882 1335.24 14.2782C1335.67 14.4982 1336.15 14.7282 1336.68 14.9782C1341.63 17.2982 1345.37 18.5482 1350.29 20.1782C1350.29 20.1782 1358.42 22.8582 1367.75 24.8582C1373.08 26.0082 1378.82 26.9382 1383.63 27.0082C1385.02 27.0282 1386.38 26.9682 1386.38 26.9682C1386.5 26.9682 1386.62 26.9583 1386.73 26.9583C1386.74 26.9583 1386.75 26.9583 1386.75 26.9583C1387.11 26.9383 1387.41 26.9182 1387.63 26.9082C1387.65 29.9082 1387.66 32.8983 1387.66 35.8983Z" fill="#D6EEF8"/>
<path d="M1385.13 30.2583C1385.09 30.5883 1384.97 31.1283 1384.6 31.6583C1383.79 32.8183 1382.46 32.9883 1382.22 33.0183C1360.96 37.7883 1348.62 33.7583 1341.33 29.2983C1331.17 23.0883 1332.36 16.0083 1321.93 13.6583C1312.29 11.4883 1290.27 13.5283 1286.38 13.9183C1282.49 14.2983 1283.25 14.3683 1278.34 15.3183C1273.43 16.2783 1271.57 14.8683 1267.68 13.8483C1263.79 12.8283 1254.08 13.8483 1250.25 15.0583C1246.42 16.2683 1242.78 16.3383 1239.72 14.2883C1236.66 12.2483 1232.44 12.7583 1229.32 14.2283C1226.2 15.6983 1211.32 14.0983 1208.32 13.0783C1205.32 12.0583 1201.75 14.7383 1199.06 15.7583C1196.38 16.7783 1192.68 16.4583 1187.83 13.8483C1182.98 11.2283 1175.45 12.2483 1173.09 13.6583C1170.73 15.0583 1168.62 15.4483 1164.15 14.1083C1159.68 12.7683 1149.41 11.4283 1142.7 14.6783C1136 17.9383 1131.66 21.5683 1127.06 20.8083C1122.46 20.0383 1121.95 16.8483 1118.83 17.2983C1115.7 17.7483 1109.89 22.4083 1105.36 21.4483C1100.83 20.4883 1099.36 16.4083 1095.15 17.0483C1090.94 17.6883 1090.17 19.7283 1085.83 19.2183C1081.49 18.7083 1080.6 14.8783 1076.06 14.1783C1071.53 13.4783 1067.63 13.5383 1063.87 14.8783C1060.1 16.2183 1056.34 16.7283 1053.15 13.4783C1049.96 10.2183 1052 6.6483 1053.47 5.6883C1054.94 4.7283 1059.47 5.0483 1062.09 5.6883C1064.71 6.3283 1068.09 3.64827 1071.98 4.21827C1075.87 4.78827 1081.3 8.87826 1083.66 9.83826C1086.02 10.7983 1091.57 10.6083 1093.68 9.45832C1095.79 8.30832 1098.91 6.19828 1101.98 7.22828C1105.04 8.24828 1107.47 11.6983 1111.11 12.2083C1114.75 12.7183 1119.54 11.5083 1123.05 11.8283C1126.56 12.1483 1129.18 12.6583 1132.43 12.0883C1135.69 11.5183 1139.13 10.3683 1143.09 10.7483C1147.05 11.1283 1147.62 10.8083 1150.75 9.02827C1153.88 7.23827 1158.09 3.21826 1163.26 2.83826C1168.43 2.45826 1170.92 5.77828 1172.83 6.66828C1174.74 7.55828 1178.32 7.5583 1182.79 7.4983C1187.26 7.4383 1191.28 7.81828 1193.64 9.60828C1196 11.3983 1197.09 12.7383 1198.3 12.6683C1199.51 12.6083 1201.56 9.0983 1204.68 7.3083C1207.8 5.5183 1212.59 6.02828 1216.23 6.66828C1219.87 7.30828 1224.21 6.72827 1226.63 6.15827C1229.05 5.58827 1233.01 3.98828 1236.78 6.28828C1240.55 8.58828 1241.31 11.5883 1243.42 11.7183C1245.53 11.8483 1246.04 10.4383 1248.78 8.65827C1251.52 6.86827 1254.27 7.5083 1255.8 6.8083C1257.33 6.1083 1260.14 4.63832 1268.63 8.14832C1277.12 11.6583 1278.78 12.5483 1284.84 11.5283C1290.27 10.6083 1292.41 8.67828 1298.5 6.41828C1301.09 5.45828 1303.69 4.48829 1306.35 4.11829C1313.8 3.07829 1319.22 7.06832 1327.54 11.5183C1333.4 14.6583 1340.08 18.2183 1348.73 20.7083C1351.56 21.5183 1373.2 27.7483 1379.88 27.4783C1380.55 27.4483 1383.25 27.2683 1384.52 28.8783C1384.92 29.3583 1385.07 29.9083 1385.13 30.2583Z" fill="white"/>
<path d="M1031.3 7.14823C1031.3 7.14823 1038.7 13.0182 1038.83 17.8082C1038.96 22.5982 1032.13 23.5482 1026.7 20.9382C1021.27 18.3182 1016.42 13.3382 1009.79 14.0482C1003.15 14.7482 994.531 18.0682 987.131 16.5382C979.731 15.0082 979.921 12.3882 976.531 13.4082C973.151 14.4282 971.301 14.8082 966.761 13.0282C962.231 11.2382 943.591 10.2182 936.891 13.7282C930.191 17.2382 926.231 21.3882 917.551 19.0282C908.871 16.6682 905.611 15.9682 900.641 17.5582C895.661 19.1582 893.041 18.3282 890.361 17.8182C887.681 17.3082 884.231 18.7782 880.081 20.3682C875.931 21.9682 872.481 20.1082 869.481 21.3282C866.481 22.5482 863.861 21.3882 858.051 20.0482C852.241 18.7082 845.161 20.4082 838.771 22.3682C832.391 24.3282 830.541 19.0882 827.031 18.8982C823.521 18.7082 820.841 21.8982 815.671 22.0882C810.501 22.2782 800.671 18.9582 795.821 19.7282C790.971 20.4982 791.101 22.4082 788.161 23.1782C785.221 23.9482 778.011 19.5382 774.251 19.1582C770.481 18.7782 766.341 18.1982 763.141 20.3682C759.951 22.5382 755.991 21.7082 752.421 20.3682C748.851 19.0282 743.361 19.0882 739.911 19.5382C736.461 19.9882 729.821 23.1082 725.801 25.5982C721.781 28.0882 715.971 28.1482 713.541 26.5582C711.111 24.9582 708.181 23.6882 705.371 25.0882C702.561 26.4882 696.051 29.4282 692.671 27.2582C689.291 25.0882 687.241 22.4082 682.711 23.8782C678.181 25.3482 674.541 25.3482 670.451 22.4082C666.361 19.4682 654.941 20.3682 651.681 21.8382C648.421 23.3082 643.001 22.2882 641.981 18.9682C640.961 15.6482 643.261 11.0582 646.001 10.6682C648.741 10.2882 652.771 12.1382 654.621 11.8782C656.471 11.6182 659.471 9.06819 664.131 10.8582C668.791 12.6482 672.301 16.0882 674.601 16.4082C676.901 16.7282 679.261 16.7882 682.001 16.1482C684.741 15.5082 687.041 13.5982 690.361 13.7882C693.681 13.9782 697.131 17.5582 700.831 18.1282C704.531 18.6982 708.871 18.6982 711.231 18.3182C713.591 17.9382 718.381 19.3382 719.781 19.1482C721.181 18.9582 725.271 17.0382 729.551 17.1082C733.831 17.1782 738.291 17.6782 740.721 16.1482C743.151 14.6182 746.781 10.5282 751.121 9.44822C755.461 8.35822 759.931 10.9782 762.991 12.5782C766.051 14.1782 775.121 13.6682 778.501 14.0482C781.881 14.4282 784.501 16.8582 786.481 18.1382C788.461 19.4182 789.291 18.7082 790.691 17.3082C792.091 15.9082 795.351 11.6882 801.351 12.1382C807.351 12.5882 812.331 13.6082 816.861 12.7082C821.391 11.8082 824.461 10.4782 827.461 12.7682C830.461 15.0682 832.371 17.8082 833.971 18.1282C835.571 18.4482 837.541 16.5282 839.521 15.1282C841.501 13.7282 849.411 11.9382 852.861 12.5082C856.311 13.0782 861.351 16.1482 865.051 17.2282C868.751 18.3182 879.601 17.9282 881.331 16.7782C883.061 15.6282 884.071 14.4182 887.521 14.7382C890.971 15.0582 896.841 14.2282 898.691 13.2082C900.541 12.1882 907.821 11.7382 910.821 11.6082C913.821 11.4782 923.271 3.37818 927.421 2.28818C931.571 1.19818 947.081 0.818171 950.781 1.83817C954.481 2.85817 959.781 6.55818 962.841 7.96818C965.901 9.36818 971.141 10.9682 973.181 9.0582C975.221 7.1482 976.051 2.41819 984.921 2.54819C993.791 2.67819 996.031 6.4382 997.691 8.7382C999.351 11.0382 1000.43 12.2482 1003.56 11.2882C1006.69 10.3282 1007.58 7.00821 1009.3 6.37821C1011.02 5.74821 1012.81 7.7182 1014.09 8.4882C1015.37 9.2582 1018.18 6.9582 1020.09 5.8082C1022 4.6582 1026.6 5.2382 1028.13 5.6182C1029.71 5.9982 1031.3 7.14823 1031.3 7.14823Z" fill="white"/>
<path d="M623.241 14.6382C623.241 14.6382 631.091 21.8282 628.731 26.2282C626.371 30.6282 617.181 28.0182 610.991 23.2882C604.801 18.5682 595.101 20.8582 591.081 22.1382C587.061 23.4182 578.121 24.8782 572.571 22.1382C567.021 19.3982 567.211 20.4782 564.721 21.1182C562.231 21.7582 557.631 19.7182 553.291 18.1782C548.951 16.6482 531.271 17.4082 525.971 20.8582C520.671 24.3082 516.331 28.8382 508.611 26.5382C500.891 24.2382 495.461 22.7082 492.911 23.5982C490.361 24.4882 485.701 25.3882 481.041 23.9782C476.381 22.5782 467.511 25.8282 463.681 26.4082C459.851 26.9782 437.061 26.7882 433.041 26.9782C429.021 27.1682 424.931 27.0182 421.741 28.4682C418.551 29.9182 412.041 27.1082 407.121 26.5282C402.201 25.9482 395.501 28.0582 392.501 28.5682C389.501 29.0782 385.481 29.2082 381.781 26.5882C378.081 23.9682 375.651 26.3982 371.821 27.6082C367.991 28.8182 360.081 28.1782 354.331 26.9082C348.591 25.6282 346.481 26.3382 343.481 28.1182C340.481 29.8982 335.051 30.9282 330.911 27.7982C326.761 24.6682 320.001 23.9682 317.061 26.1982C314.121 28.4282 307.551 29.4582 303.021 26.9682C298.491 24.4782 292.171 25.7582 287.191 27.7982C282.211 29.8382 278.131 34.5682 271.421 34.1182C264.721 33.6682 265.741 30.7982 260.821 30.7382C255.911 30.6782 254.251 35.9682 248.251 34.7582C242.251 33.5482 242.571 29.9682 238.041 30.0982C233.511 30.2282 233.571 33.6082 229.041 32.6482C224.511 31.6882 222.661 26.7082 214.171 26.8382C205.681 26.9682 205.231 32.7082 199.491 30.1582C193.751 27.6082 192.721 23.0682 194.061 21.0982C195.401 19.1182 199.291 16.6982 202.101 17.5882C204.911 18.4782 209.191 17.9682 211.481 17.1382C213.781 16.3082 217.931 18.1582 221.311 20.1982C224.691 22.2382 227.571 24.0882 231.591 23.7082C235.611 23.3282 239.631 20.1382 242.441 20.0682C245.251 19.9982 249.721 23.3382 252.331 24.7682C254.951 26.1982 259.101 25.7482 262.101 25.3682C265.101 24.9882 271.361 25.4982 274.101 25.6282C276.841 25.7582 277.551 23.3282 280.611 23.3982C283.671 23.4582 287.761 24.0982 289.801 23.4582C291.841 22.8182 300.591 15.9282 305.891 15.9882C311.191 16.0482 314.511 18.9282 316.491 20.0082C318.471 21.0982 322.231 20.7082 325.361 20.4582C328.491 20.2082 333.211 21.3482 336.151 23.0082C339.091 24.6682 340.681 25.7482 341.511 25.1782C342.341 24.6082 344.891 19.5582 350.131 19.1782C355.371 18.7982 358.941 20.3282 360.851 20.0082C362.761 19.6882 367.871 20.0082 369.401 19.3682C370.931 18.7282 375.661 17.5182 379.291 18.9182C382.931 20.3182 383.251 23.1982 384.401 23.9582C385.551 24.7282 388.801 24.1482 390.591 22.4282C392.381 20.7082 395.121 20.3882 398.631 19.8082C402.141 19.2382 409.031 19.1682 412.031 20.6382C415.031 22.1082 418.161 24.5282 422.881 24.3382C427.601 24.1482 430.791 24.2082 433.481 23.0582C436.171 21.9082 441.271 18.4582 447.271 17.4382C453.271 16.4182 460.231 16.5482 465.841 18.3282C471.461 20.1182 472.931 21.1982 477.711 21.3282C482.501 21.4582 487.221 20.1782 489.451 19.2182C491.681 18.2582 495.261 18.0082 497.491 18.1982C499.721 18.3882 502.981 18.0682 505.531 16.2882C508.081 14.4982 515.931 8.1182 521.681 7.9882C527.421 7.8582 536.681 7.72821 539.621 8.30821C542.561 8.87821 549.771 12.3982 552.511 14.0482C555.251 15.7082 560.681 16.5982 561.891 16.4082C563.101 16.2182 565.781 9.83822 573.511 9.31822C581.231 8.80822 584.941 11.1082 586.471 12.8282C588.001 14.5482 589.981 18.5682 593.111 17.8682C596.241 17.1682 597.451 13.3982 600.201 13.3982C602.941 13.3982 604.801 15.0582 606.581 14.2882C608.371 13.5182 610.791 11.8582 614.241 11.7982C617.691 11.7382 619.731 12.2482 620.881 12.8182C622.031 13.4682 623.241 14.6382 623.241 14.6382Z" fill="white"/>
<path d="M176.69 22.4683C176.69 22.4683 182.9 28.5083 181.12 32.1683C179.33 35.8283 173.63 37.1083 165.97 32.1683C158.31 27.2283 149.2 25.8683 144.52 28.0783C139.84 30.2883 128.86 31.5783 124.95 28.9283C121.04 26.2883 119.08 26.6283 117.55 27.6483C116.02 28.6683 112.27 27.6483 108.87 26.5383C105.47 25.4283 85.5503 22.5383 76.8703 27.9883C68.1903 33.4383 66.2303 35.3083 58.8303 32.6683C51.4303 30.0283 46.0603 28.7583 43.0003 30.7983C39.9403 32.8383 35.8503 31.5683 31.9403 30.7083C28.0303 29.8583 22.3203 32.4083 16.4503 32.6683C10.5803 32.9283 8.62033 28.3283 9.56033 26.3683C10.5003 24.4083 18.2403 24.4983 22.1603 26.1083C26.0703 27.7283 30.9303 28.7483 33.9903 28.3183C37.0503 27.8883 41.8203 25.2583 46.2503 25.1683C50.6803 25.0783 55.1903 24.9083 58.8503 22.4483C62.5103 19.9783 65.4003 15.2183 76.0403 14.6183C86.6803 14.0183 93.7403 14.7883 100.38 18.4483C107.02 22.1083 110.85 23.7283 113.74 23.1283C116.63 22.5283 117.06 15.2183 127.78 15.8983C138.5 16.5783 140.04 22.7083 142.25 24.1583C144.46 25.6083 147.19 23.5583 148.97 21.9483C150.75 20.3383 152.88 19.3083 155.35 20.7583C157.82 22.2083 160.29 19.8183 162.75 18.7983C165.22 17.7783 171.09 18.7983 173.13 19.7383C175.17 20.6783 176.69 22.4683 176.69 22.4683Z" fill="white"/>
</g>
<defs>
<clipPath id="clip0_276_77">
<rect width="1323" height="92" fill="white"/>
</clipPath>
</defs>
</svg>
